<?xml version="1.0" encoding="UTF-8" standalone="no"?>
<svg
   xmlns:dc="http://purl.org/dc/elements/1.1/"
   xmlns:cc="http://creativecommons.org/ns#"
   xmlns:rdf="http://www.w3.org/1999/02/22-rdf-syntax-ns#"
   xmlns:svg="http://www.w3.org/2000/svg"
   xmlns="http://www.w3.org/2000/svg"
   xmlns:sodipodi="http://sodipodi.sourceforge.net/DTD/sodipodi-0.dtd"
   xmlns:inkscape="http://www.inkscape.org/namespaces/inkscape"
   height="100%"
   style="fill-rule:evenodd;clip-rule:evenodd;stroke-linejoin:round;stroke-miterlimit:1.41421;"
   version="1.1"
   viewBox="0 0 100 100"
   width="100%"
   xml:space="preserve"
   id="svg3390"
   inkscape:version="0.91 r13725"
   sodipodi:docname="hen-head.svg"><metadata
     id="metadata3404"><rdf:RDF><cc:Work
         rdf:about=""><dc:format>image/svg+xml</dc:format><dc:type
           rdf:resource="http://purl.org/dc/dcmitype/StillImage" /></cc:Work></rdf:RDF></metadata><defs
     id="defs3402" /><sodipodi:namedview
     pagecolor="#ffffff"
     bordercolor="#666666"
     borderopacity="1"
     objecttolerance="10"
     gridtolerance="10"
     guidetolerance="10"
     inkscape:pageopacity="0"
     inkscape:pageshadow="2"
     inkscape:window-width="1855"
     inkscape:window-height="1056"
     id="namedview3400"
     showgrid="false"
     inkscape:zoom="9.19"
     inkscape:cx="50"
     inkscape:cy="50"
     inkscape:window-x="1985"
     inkscape:window-y="24"
     inkscape:window-maximized="1"
     inkscape:current-layer="g3394" /><clipPath
     id="_clip1"><rect
       height="100"
       id="hen-head"
       width="100"
       x="0"
       y="0" /></clipPath><g
     clip-path="url(#_clip1)"
     id="g3394"><path
       d="M49.661,58.728c3.423,-0.031 6.426,-0.284 9.414,-0.681c1.905,-0.253 3.792,-0.621 5.634,-1.188c1.095,-0.337 2.162,-0.739 3.166,-1.294c0.686,-0.378 1.323,-0.823 1.861,-1.399c0.47,-0.504 0.808,-1.076 0.955,-1.757c0.084,-0.387 -0.018,-0.695 -0.347,-0.957c-0.494,-0.393 -1.054,-0.659 -1.635,-0.893c-1.065,-0.429 -2.176,-0.686 -3.298,-0.908c-1.949,-0.384 -3.925,-0.423 -5.899,-0.423c-1.452,0 -2.904,0.069 -4.341,0.369c-0.745,0.156 -1.332,0.455 -1.849,1.035c-2.145,2.404 -4.33,4.772 -6.498,7.154c-0.174,0.192 -0.343,0.391 -0.489,0.604c-0.04,0.059 0.002,0.184 0.027,0.274c0.008,0.03 0.08,0.061 0.122,0.061c1.195,0.003 2.389,0.003 3.177,0.003M43.486,58.977c0.267,-0.286 0.524,-0.543 0.76,-0.818c4.113,-4.779 8.128,-9.637 11.958,-14.646c1.994,-2.608 3.934,-5.255 5.723,-8.009c0.794,-1.224 1.55,-2.47 2.216,-3.77c0.38,-0.743 0.722,-1.501 0.966,-2.301c0.045,-0.147 0.057,-0.305 0.082,-0.458c0.019,-0.116 -0.13,-0.332 -0.252,-0.349c-0.307,-0.042 -0.621,-0.131 -0.922,-0.101c-0.931,0.09 -1.871,0.166 -2.785,0.355c-3.876,0.804 -7.419,2.395 -10.668,4.646c-1.288,0.892 -2.481,1.902 -3.554,3.046c-1.512,1.614 -2.723,3.421 -3.478,5.512c-0.516,1.431 -0.865,2.891 -0.723,4.433c0.039,0.414 0.036,0.833 0.042,1.25c0.046,3.546 -0.011,7.084 -0.733,10.577c-0.031,0.152 -0.025,0.311 -0.035,0.466c-0.006,0.101 0.206,0.282 0.326,0.271c0.36,-0.035 0.719,-0.069 1.077,-0.104M40.993,51.547c-0.025,-3.784 -0.191,-6.59 -0.518,-9.382c-0.467,-3.982 -1.163,-7.925 -2.171,-11.808c-1.075,-4.137 -2.453,-8.167 -4.332,-12.016c-1.56,-3.193 -3.417,-6.194 -5.773,-8.87c-0.205,-0.232 -0.434,-0.446 -0.671,-0.646c-0.057,-0.048 -0.221,-0.041 -0.285,0.008c-0.163,0.124 -0.314,0.273 -0.441,0.435c-1.324,1.691 -2.368,3.542 -3.152,5.542c-1.076,2.738 -1.617,5.593 -1.811,8.514c-0.172,2.604 -0.04,5.205 0.347,7.785c0.724,4.818 2.138,9.426 4.267,13.812c1.623,3.341 3.601,6.447 6.101,9.207c1.192,1.316 2.493,2.512 3.939,3.544c0.892,0.635 1.827,1.199 2.826,1.65c0.542,0.244 0.789,0.15 0.939,-0.377c0.114,-0.4 0.216,-0.804 0.292,-1.212c0.44,-2.367 0.401,-4.765 0.443,-6.186M48.375,92.42c0.567,-0.046 1.5,-0.118 2.433,-0.197c2.3,-0.195 4.513,-0.754 6.652,-1.608c2.642,-1.054 5.014,-2.529 7.013,-4.573c0.952,-0.973 1.785,-2.037 2.436,-3.233c2.148,-3.94 2.262,-7.937 0.297,-11.977c-0.782,-1.609 -1.862,-3.006 -3.141,-4.25c-1.43,-1.39 -3.049,-2.516 -4.816,-3.433c-2.522,-1.308 -5.207,-2.109 -8.011,-2.494c-1.132,-0.156 -2.287,-0.274 -3.424,-0.229c-3.522,0.141 -6.904,0.938 -10.098,2.453c-2.276,1.08 -4.337,2.476 -6.094,4.297c-1.277,1.323 -2.317,2.807 -3.056,4.498c-1.531,3.502 -1.455,6.978 0.181,10.421c0.7,1.47 1.654,2.767 2.792,3.93c1.47,1.503 3.162,2.699 5.025,3.667c3.587,1.864 7.431,2.634 11.811,2.728M69.195,70.187c4.322,0.847 8.151,2.761 11.83,5.188c-0.204,0.194 -0.295,0.334 -0.422,0.39c-0.38,0.169 -0.774,0.306 -1.164,0.452c-2.583,0.967 -5.167,1.933 -7.748,2.903c-0.34,0.128 -0.679,0.264 -1.002,0.43c-0.127,0.065 -0.221,0.213 -0.307,0.339c-0.056,0.082 -0.079,0.191 -0.103,0.292c-0.918,3.736 -3.029,6.702 -5.942,9.135c-2.722,2.274 -5.85,3.771 -9.259,4.698c-3.093,0.841 -6.249,1.139 -9.441,0.913c-4.05,-0.287 -7.891,-1.338 -11.442,-3.353c-2.334,-1.324 -4.386,-2.99 -6.064,-5.093c-1.616,-2.025 -2.759,-4.28 -3.267,-6.837c-0.719,-3.616 -0.198,-7.041 1.569,-10.275c1.297,-2.372 3.103,-4.297 5.263,-5.898c1.599,-1.185 3.344,-2.108 5.185,-2.857c0.13,-0.053 0.239,-0.165 0.345,-0.263c0.026,-0.024 0.024,-0.122 -0.002,-0.148c-0.109,-0.109 -0.219,-0.223 -0.35,-0.298c-3.45,-1.975 -6.219,-4.696 -8.593,-7.847c-3.389,-4.5 -5.793,-9.494 -7.418,-14.875c-0.951,-3.152 -1.555,-6.373 -1.789,-9.654c-0.306,-4.298 0.073,-8.53 1.439,-12.644c1.064,-3.204 2.677,-6.092 4.959,-8.592c0.316,-0.345 0.645,-0.683 1.005,-0.979c0.518,-0.425 1.196,-0.413 1.734,0.003c0.246,0.19 0.47,0.411 0.689,0.632c1.691,1.711 3.151,3.604 4.456,5.622c2.017,3.12 3.589,6.458 4.862,9.939c1.47,4.019 2.54,8.146 3.268,12.361c0.266,1.538 0.467,3.087 0.699,4.631c0.015,0.102 0.031,0.209 0.074,0.301c0.042,0.088 0.106,0.196 0.187,0.227c0.064,0.026 0.186,-0.031 0.25,-0.087c0.075,-0.066 0.119,-0.17 0.168,-0.261c1.748,-3.297 4.285,-5.873 7.327,-7.976c3.157,-2.184 6.593,-3.762 10.34,-4.635c1.373,-0.32 2.76,-0.529 4.177,-0.48c0.578,0.02 1.136,0.118 1.693,0.263c0.898,0.235 1.416,0.837 1.664,1.693c0.146,0.503 0.182,1.017 0.106,1.546c-0.113,0.779 -0.327,1.523 -0.631,2.247c-0.445,1.059 -0.986,2.066 -1.578,3.048c-1.238,2.055 -2.607,4.02 -4.079,5.911c-1.44,1.849 -2.924,3.663 -4.384,5.496c-0.257,0.323 -0.492,0.664 -0.73,1.001c-0.026,0.036 -0.027,0.111 -0.006,0.151c0.018,0.036 0.086,0.072 0.126,0.066c0.563,-0.083 1.127,-0.168 1.688,-0.265c1.709,-0.296 3.417,-0.257 5.134,-0.044c1.659,0.207 3.286,0.534 4.868,1.075c0.889,0.305 1.747,0.676 2.547,1.175c0.534,0.333 1.014,0.727 1.415,1.216c0.452,0.549 0.654,1.17 0.61,1.881c-0.059,0.959 -0.368,1.832 -0.886,2.634c-0.457,0.708 -1.043,1.296 -1.715,1.8c-0.924,0.694 -1.947,1.201 -3.02,1.614c-1.513,0.582 -3.078,0.962 -4.671,1.24c-1.797,0.313 -3.607,0.513 -5.426,0.642c-0.087,0.006 -0.17,0.075 -0.254,0.116c-0.094,0.046 0.061,0.269 0.247,0.345c0.24,0.098 0.484,0.186 0.725,0.284c1.354,0.548 2.662,1.185 3.903,1.959c2.28,1.422 4.252,3.177 5.797,5.386c0.447,0.639 0.838,1.317 1.344,2.116"
       style="fill:#d4ff2a;fill-rule:nonzero"
       id="path3396" /><path
       d="M49.557,68.439c0.095,0.016 0.363,0.022 0.601,0.113c0.434,0.164 0.883,0.328 1.267,0.581c1.775,1.176 3.061,2.778 3.961,4.697c0.119,0.254 0.057,0.521 -0.14,0.711c-0.207,0.199 -0.455,0.237 -0.717,0.154c-0.146,-0.047 -0.286,-0.122 -0.419,-0.201c-1.247,-0.745 -2.498,-1.483 -3.735,-2.244c-0.574,-0.352 -1.136,-0.728 -1.672,-1.136c-0.283,-0.215 -0.524,-0.502 -0.735,-0.792c-0.396,-0.544 -0.207,-1.255 0.391,-1.599c0.321,-0.185 0.659,-0.3 1.198,-0.284"
       style="fill:#f6ffd5;fill-rule:nonzero"
       id="path3398" /></g></svg>